<mxfile host="app.diagrams.net" modified="2023-05-20T13:20:48.470Z" agent="Mozilla/5.0 (Windows NT 10.0; Win64; x64) AppleWebKit/537.36 (KHTML, like Gecko) Chrome/113.0.0.0 Safari/537.36 Edg/113.0.1774.50" etag="9iuaDBZ4tupX4bwu6I9v" version="21.3.2" type="github">
  <diagram name="Σελίδα-1" id="i4doWh86bvLPYv4OvD2V">
    <mxGraphModel dx="1286" dy="605" grid="1" gridSize="10" guides="1" tooltips="1" connect="1" arrows="1" fold="1" page="1" pageScale="1" pageWidth="3300" pageHeight="4681" math="0" shadow="0">
      <root>
        <mxCell id="0" />
        <mxCell id="1" parent="0" />
        <mxCell id="apY-BKsqMLjLRzC5Z0pB-1" value="Επιστήμονες" style="whiteSpace=wrap;html=1;align=center;" vertex="1" parent="1">
          <mxGeometry x="500" y="330" width="100" height="40" as="geometry" />
        </mxCell>
        <mxCell id="apY-BKsqMLjLRzC5Z0pB-3" value="1.1 Αναζήτηση χάρτη" style="ellipse;whiteSpace=wrap;html=1;align=center;" vertex="1" parent="1">
          <mxGeometry x="770" y="190" width="160" height="80" as="geometry" />
        </mxCell>
        <mxCell id="apY-BKsqMLjLRzC5Z0pB-4" value="1.2 Προσθήκη χάρτη" style="ellipse;whiteSpace=wrap;html=1;align=center;" vertex="1" parent="1">
          <mxGeometry x="780" y="340" width="160" height="80" as="geometry" />
        </mxCell>
        <mxCell id="apY-BKsqMLjLRzC5Z0pB-9" value="" style="endArrow=none;html=1;rounded=0;" edge="1" parent="1">
          <mxGeometry width="50" height="50" relative="1" as="geometry">
            <mxPoint x="500" y="210" as="sourcePoint" />
            <mxPoint x="600" y="210" as="targetPoint" />
          </mxGeometry>
        </mxCell>
        <mxCell id="apY-BKsqMLjLRzC5Z0pB-10" value="Χάρτες" style="text;html=1;strokeColor=none;fillColor=none;align=center;verticalAlign=middle;whiteSpace=wrap;rounded=0;" vertex="1" parent="1">
          <mxGeometry x="520" y="210" width="60" height="30" as="geometry" />
        </mxCell>
        <mxCell id="apY-BKsqMLjLRzC5Z0pB-11" value="" style="endArrow=none;html=1;rounded=0;" edge="1" parent="1">
          <mxGeometry width="50" height="50" relative="1" as="geometry">
            <mxPoint x="500" y="240" as="sourcePoint" />
            <mxPoint x="600" y="240" as="targetPoint" />
          </mxGeometry>
        </mxCell>
        <mxCell id="apY-BKsqMLjLRzC5Z0pB-12" value="" style="endArrow=none;html=1;rounded=0;exitX=1;exitY=0.5;exitDx=0;exitDy=0;" edge="1" parent="1" source="apY-BKsqMLjLRzC5Z0pB-10">
          <mxGeometry width="50" height="50" relative="1" as="geometry">
            <mxPoint x="630" y="240" as="sourcePoint" />
            <mxPoint x="650" y="225" as="targetPoint" />
          </mxGeometry>
        </mxCell>
        <mxCell id="apY-BKsqMLjLRzC5Z0pB-13" value="Όλοι οι χάρτες" style="text;html=1;strokeColor=none;fillColor=none;align=center;verticalAlign=middle;whiteSpace=wrap;rounded=0;" vertex="1" parent="1">
          <mxGeometry x="640" y="210" width="60" height="30" as="geometry" />
        </mxCell>
        <mxCell id="apY-BKsqMLjLRzC5Z0pB-14" value="" style="endArrow=classic;html=1;rounded=0;exitX=1;exitY=0.5;exitDx=0;exitDy=0;entryX=0;entryY=0.5;entryDx=0;entryDy=0;" edge="1" parent="1" source="apY-BKsqMLjLRzC5Z0pB-13" target="apY-BKsqMLjLRzC5Z0pB-3">
          <mxGeometry width="50" height="50" relative="1" as="geometry">
            <mxPoint x="720" y="200" as="sourcePoint" />
            <mxPoint x="770" y="150" as="targetPoint" />
          </mxGeometry>
        </mxCell>
        <mxCell id="apY-BKsqMLjLRzC5Z0pB-15" value="" style="endArrow=none;html=1;rounded=0;exitX=1;exitY=0.5;exitDx=0;exitDy=0;" edge="1" parent="1" source="apY-BKsqMLjLRzC5Z0pB-1">
          <mxGeometry width="50" height="50" relative="1" as="geometry">
            <mxPoint x="620" y="370" as="sourcePoint" />
            <mxPoint x="650" y="330" as="targetPoint" />
          </mxGeometry>
        </mxCell>
        <mxCell id="apY-BKsqMLjLRzC5Z0pB-16" value="Όνομα χάρτη" style="text;html=1;strokeColor=none;fillColor=none;align=center;verticalAlign=middle;whiteSpace=wrap;rounded=0;" vertex="1" parent="1">
          <mxGeometry x="640" y="310" width="90" height="30" as="geometry" />
        </mxCell>
        <mxCell id="apY-BKsqMLjLRzC5Z0pB-17" value="" style="endArrow=classic;html=1;rounded=0;exitX=1;exitY=0;exitDx=0;exitDy=0;" edge="1" parent="1" source="apY-BKsqMLjLRzC5Z0pB-16" target="apY-BKsqMLjLRzC5Z0pB-3">
          <mxGeometry width="50" height="50" relative="1" as="geometry">
            <mxPoint x="720" y="320" as="sourcePoint" />
            <mxPoint x="770" y="270" as="targetPoint" />
          </mxGeometry>
        </mxCell>
        <mxCell id="apY-BKsqMLjLRzC5Z0pB-18" value="" style="endArrow=none;html=1;rounded=0;exitX=1;exitY=0.75;exitDx=0;exitDy=0;" edge="1" parent="1" source="apY-BKsqMLjLRzC5Z0pB-1" target="apY-BKsqMLjLRzC5Z0pB-19">
          <mxGeometry width="50" height="50" relative="1" as="geometry">
            <mxPoint x="620" y="430" as="sourcePoint" />
            <mxPoint x="670" y="370" as="targetPoint" />
          </mxGeometry>
        </mxCell>
        <mxCell id="apY-BKsqMLjLRzC5Z0pB-19" value="Ον. προσθήκης χάρτη" style="text;html=1;strokeColor=none;fillColor=none;align=center;verticalAlign=middle;whiteSpace=wrap;rounded=0;" vertex="1" parent="1">
          <mxGeometry x="640" y="355" width="90" height="30" as="geometry" />
        </mxCell>
        <mxCell id="apY-BKsqMLjLRzC5Z0pB-20" value="" style="endArrow=classic;html=1;rounded=0;exitX=1;exitY=0.5;exitDx=0;exitDy=0;entryX=0;entryY=0.5;entryDx=0;entryDy=0;" edge="1" parent="1" source="apY-BKsqMLjLRzC5Z0pB-19" target="apY-BKsqMLjLRzC5Z0pB-4">
          <mxGeometry width="50" height="50" relative="1" as="geometry">
            <mxPoint x="770" y="390" as="sourcePoint" />
            <mxPoint x="820" y="340" as="targetPoint" />
          </mxGeometry>
        </mxCell>
        <mxCell id="apY-BKsqMLjLRzC5Z0pB-21" value="" style="endArrow=none;html=1;rounded=0;" edge="1" parent="1">
          <mxGeometry width="50" height="50" relative="1" as="geometry">
            <mxPoint x="1160" y="400" as="sourcePoint" />
            <mxPoint x="1240" y="400" as="targetPoint" />
          </mxGeometry>
        </mxCell>
        <mxCell id="apY-BKsqMLjLRzC5Z0pB-22" value="χάρτες" style="text;html=1;strokeColor=none;fillColor=none;align=center;verticalAlign=middle;whiteSpace=wrap;rounded=0;" vertex="1" parent="1">
          <mxGeometry x="1170" y="400" width="60" height="30" as="geometry" />
        </mxCell>
        <mxCell id="apY-BKsqMLjLRzC5Z0pB-23" value="" style="endArrow=none;html=1;rounded=0;" edge="1" parent="1">
          <mxGeometry width="50" height="50" relative="1" as="geometry">
            <mxPoint x="1160" y="440" as="sourcePoint" />
            <mxPoint x="1240" y="440" as="targetPoint" />
          </mxGeometry>
        </mxCell>
        <mxCell id="apY-BKsqMLjLRzC5Z0pB-24" value="" style="endArrow=none;html=1;rounded=0;exitX=1.014;exitY=0.622;exitDx=0;exitDy=0;exitPerimeter=0;" edge="1" parent="1" source="apY-BKsqMLjLRzC5Z0pB-4">
          <mxGeometry width="50" height="50" relative="1" as="geometry">
            <mxPoint x="970" y="420" as="sourcePoint" />
            <mxPoint x="1000" y="400" as="targetPoint" />
          </mxGeometry>
        </mxCell>
        <mxCell id="apY-BKsqMLjLRzC5Z0pB-25" value="προσθήκη χάρτη" style="text;html=1;strokeColor=none;fillColor=none;align=center;verticalAlign=middle;whiteSpace=wrap;rounded=0;" vertex="1" parent="1">
          <mxGeometry x="1000" y="390" width="60" height="30" as="geometry" />
        </mxCell>
        <mxCell id="apY-BKsqMLjLRzC5Z0pB-26" value="" style="endArrow=classic;html=1;rounded=0;exitX=1;exitY=0.5;exitDx=0;exitDy=0;" edge="1" parent="1" source="apY-BKsqMLjLRzC5Z0pB-25">
          <mxGeometry width="50" height="50" relative="1" as="geometry">
            <mxPoint x="1090" y="500" as="sourcePoint" />
            <mxPoint x="1160" y="410" as="targetPoint" />
          </mxGeometry>
        </mxCell>
        <mxCell id="apY-BKsqMLjLRzC5Z0pB-27" value="Επιστήμονες" style="whiteSpace=wrap;html=1;align=center;" vertex="1" parent="1">
          <mxGeometry x="1130" y="205" width="100" height="40" as="geometry" />
        </mxCell>
        <mxCell id="apY-BKsqMLjLRzC5Z0pB-28" value="" style="endArrow=none;html=1;rounded=0;exitX=1.004;exitY=0.393;exitDx=0;exitDy=0;exitPerimeter=0;" edge="1" parent="1" source="apY-BKsqMLjLRzC5Z0pB-3" target="apY-BKsqMLjLRzC5Z0pB-29">
          <mxGeometry width="50" height="50" relative="1" as="geometry">
            <mxPoint x="960" y="230" as="sourcePoint" />
            <mxPoint x="1000" y="220" as="targetPoint" />
          </mxGeometry>
        </mxCell>
        <mxCell id="apY-BKsqMLjLRzC5Z0pB-29" value="Χάρτης&lt;br&gt;Μήνυμα λάθους" style="text;html=1;strokeColor=none;fillColor=none;align=center;verticalAlign=middle;whiteSpace=wrap;rounded=0;" vertex="1" parent="1">
          <mxGeometry x="970" y="205" width="90" height="30" as="geometry" />
        </mxCell>
        <mxCell id="apY-BKsqMLjLRzC5Z0pB-30" value="" style="endArrow=classic;html=1;rounded=0;exitX=1;exitY=0.5;exitDx=0;exitDy=0;entryX=0;entryY=0.5;entryDx=0;entryDy=0;" edge="1" parent="1" source="apY-BKsqMLjLRzC5Z0pB-29" target="apY-BKsqMLjLRzC5Z0pB-27">
          <mxGeometry width="50" height="50" relative="1" as="geometry">
            <mxPoint x="1070" y="240" as="sourcePoint" />
            <mxPoint x="1120" y="190" as="targetPoint" />
          </mxGeometry>
        </mxCell>
      </root>
    </mxGraphModel>
  </diagram>
</mxfile>
